<svg width="1862" height="1384" viewBox="0 0 1862 1384" fill="none" xmlns="http://www.w3.org/2000/svg">
<mask id="mask0_1003_16769" style="mask-type:alpha" maskUnits="userSpaceOnUse" x="0" y="0" width="1862" height="1384">
<rect width="1862" height="1384" rx="32" fill="white"/>
</mask>
<g mask="url(#mask0_1003_16769)">
<path d="M351.05 -467.765C737 -318 657.5 216 518 521C346.71 895.505 -200.068 1301.78 -389.345 1187.92C-578.622 1074.06 -485.313 740.962 -322.33 469.712C-159.347 198.462 161.773 -581.627 351.05 -467.765Z" fill="#FFD9A8"/>
<path d="M2776.43 965.449C2796.88 1200.46 2533.76 1384.97 2242.47 1470.64C1920.93 1565.2 1224.11 1652.58 1203.66 1417.57C1183.21 1182.56 1463.16 901.072 1842.47 836.636C2257.27 766.169 2755.98 730.439 2776.43 965.449Z" fill="#C2E4F5"/>
</g>
</svg>
