<svg width="375" height="575" viewBox="0 0 375 575" fill="none" xmlns="http://www.w3.org/2000/svg">
<mask id="mask0_1025_16793" style="mask-type:alpha" maskUnits="userSpaceOnUse" x="0" y="0" width="375" height="575">
<rect y="575" width="575" height="374.039" transform="rotate(-90 0 575)" fill="white"/>
</mask>
<g mask="url(#mask0_1025_16793)">
<path d="M-146.163 477.46C-115.39 419.01 31.2601 419.736 118.069 451.297C224.134 489.857 332.073 647.65 301.301 706.1C270.528 764.55 180.507 735.736 107.199 685.405C33.8915 635.075 -176.935 535.911 -146.163 477.46Z" fill="#FFD9A8"/>
<path d="M265.734 -282.862C326.992 -288.953 374.37 -219.981 395.935 -143.28C419.739 -58.6121 440.707 125.218 379.448 131.31C318.19 137.402 245.597 64.2679 229.789 -35.7495C212.501 -145.126 204.475 -276.77 265.734 -282.862Z" fill="#C2E4F5"/>
</g>
</svg>
