<svg width="99" height="48" viewBox="0 0 99 48" fill="none" xmlns="http://www.w3.org/2000/svg">
<path d="M21.4022 9.58495L17.0675 20.0348H27.0808C28.4197 20.0348 29.0892 20.4885 29.0892 21.396C29.0892 22.0388 28.8532 22.535 28.3812 22.8848C27.9092 23.244 27.2541 23.4236 26.4161 23.4236H15.6659L15.4925 23.8206C14.8182 25.2952 14.2884 26.3302 13.9031 26.9258C13.5178 27.5213 13.0169 28.0979 12.4004 28.6556C10.7917 30.1018 8.94223 30.825 6.85191 30.825C5.15654 30.825 3.75979 30.3287 2.66165 29.3362C1.55388 28.3437 1 27.0817 1 25.5504C1 24.5957 1.236 23.7024 1.70801 22.8706C2.18002 22.0388 2.8206 21.3913 3.62975 20.9281C4.67972 20.3326 6.10537 20.0348 7.9067 20.0348H13.0073L17.3276 9.58495H15.5937H12.5C9.5 9.5 8 10 8 8.5C8 7 8.37791 6.9383 9.61171 6.5C10.4669 6.19619 15.4203 6.19619 16.2583 6.19619H18.7291L19.3938 4.59397C20.6557 1.53132 22.5822 0 25.1735 0C26.4932 0 27.5913 0.411188 28.4679 1.23357C29.3445 2.04649 29.7827 3.06737 29.7827 4.29621C29.7827 5.86534 29.147 7.14145 27.8755 8.12452C26.6039 9.09814 24.9519 9.58495 22.9194 9.58495H21.4022ZM22.8038 6.19619H23.4685C24.1909 6.19619 24.8074 6.02131 25.318 5.67157C25.8381 5.31237 26.0982 4.87755 26.0982 4.36711C26.0982 3.6109 25.737 3.23279 25.0145 3.23279C24.3595 3.23279 23.7574 3.89448 23.2084 5.21784L22.8038 6.19619ZM11.5912 23.4236H7.79111C5.90308 23.4236 4.95907 24.0805 4.95907 25.3944C4.95907 25.9332 5.16618 26.3822 5.58039 26.7414C5.9946 27.1101 6.51477 27.2944 7.1409 27.2944C7.99822 27.2944 8.82182 26.9447 9.61171 26.2452C10.4112 25.5551 11.0711 24.6146 11.5912 23.4236Z" fill="#89795F"/>
<path d="M88.6272 31.665L87.089 36.4828C85.8207 39.5418 84.8388 41.65 84.1432 42.8072C83.4579 43.9644 82.5885 44.9506 81.535 45.7656C80.0007 46.953 78.221 47.5467 76.1957 47.5467C74.058 47.5467 72.3242 46.8826 70.9945 45.5543C69.6649 44.226 69 42.5003 69 40.377C69 37.5394 70.0535 35.0589 72.1606 32.9357C73.296 31.7885 74.7177 30.8678 76.4259 30.1734C78.134 29.469 79.8268 29.1168 81.5043 29.1168C82.3123 29.1168 82.9618 29.298 83.4528 29.6602C83.9438 30.0124 84.1893 30.4803 84.1893 31.064C84.1893 31.6778 83.9233 32.1709 83.3914 32.5432C83.0846 32.7646 82.4965 32.9155 81.627 32.996C79.6018 33.1772 77.9601 33.635 76.702 34.3696C75.6587 34.9834 74.8353 35.7884 74.2319 36.7846C73.6284 37.7708 73.3266 38.8123 73.3266 39.9091C73.3266 41.0261 73.6181 41.9116 74.2012 42.5657C74.7944 43.2298 75.5871 43.5619 76.5793 43.5619C77.8272 43.5619 78.3801 43.3106 79.5624 42.5657C80.7448 41.8207 82.297 39.1293 83.3914 36.4828L88.6272 23.3271H84.686H79.5624C78.0812 23.3271 75.8577 23.3271 75.8577 23.3271C75.8577 23.3271 74.9118 21.3755 75.5424 20.5244C75.8577 20 76.4259 20 76.4259 20L93.042 20C95.0059 20 96.4532 20.3673 97.384 21.1019C98.325 21.8264 98.7955 22.9484 98.7955 24.4679C98.7955 26.3194 97.3315 28.9961 95.879 30.1734C94.8255 31.0288 93.494 31.665 91.2949 31.665H88.6272ZM89.7949 29.0469C89.7949 29.0469 91.2949 29.5 93.042 29.1168C94.7891 28.7337 96.2108 26.6259 96.2949 24.5469C96.3244 23.8181 95.7949 22.7856 94.1449 22.7856H92.3976L89.7949 29.0469Z" fill="#89795F"/>
<g filter="url(#filter0_d_340_16490)">
<path fill-rule="evenodd" clip-rule="evenodd" d="M27 21.1945C27 15.2929 31.8552 10.6133 37.7103 10.6133C42.0237 10.6133 45.2962 13.2572 47.3151 15.4906C48.3554 16.6415 49.1544 17.7822 49.6929 18.6319C49.9637 19.0591 50.1725 19.4189 50.3166 19.6779C50.3888 19.8075 50.445 19.9124 50.485 19.9883C50.5049 20.0263 50.5208 20.0571 50.5327 20.0802C50.5386 20.0917 50.5434 20.1013 50.5473 20.109L50.5523 20.1189L50.5551 20.1244C50.5551 20.1244 50.5558 20.1258 48.5075 21.1654L50.5558 20.1259C51.1409 21.299 51.4796 22.3483 50.3166 22.9385C49.1552 23.5279 49.6929 24.1142 48.1625 23.8398L46.8398 23.1785C46.8925 23.2732 47.4936 23.1785 46.8398 23.1785C46.8398 23.1785 45.9377 22.6344 45.721 22.2925C45.3509 21.8712 44.7437 21.2449 44.1945 19.8719C42.8719 16.5652 40.0453 15.3689 37.7103 15.3689C34.3394 15.3689 31.7143 18.0382 31.7143 21.1945C31.7143 24.3508 34.3394 27.0201 37.7103 27.0201C39.5474 27.0201 42.2925 26.1088 43.8316 24.7612C44.8148 23.9004 44.8677 24.245 45.721 25.2368C46.5743 26.2286 47.1892 27.586 46.206 28.4468C44.0715 30.3156 40.9875 31.7758 37.7103 31.7758C31.8552 31.7758 27 27.0962 27 21.1945Z" fill="#FFC259"/>
<path fill-rule="evenodd" clip-rule="evenodd" d="M49.7962 12C54.0151 6.91051 57.8583 4 62.5084 4C70.6477 4 77.2597 10.8052 77.2597 19.2105C77.2597 27.6159 70.6477 34.4211 62.5084 34.4211C56.5668 34.4211 51.9856 30.5942 49.0663 27.2053C47.5746 25.4735 46.9531 24.4628 46.1773 23.1785C45.788 22.5339 44.9613 21.2825 44.7568 20.8969C44.6544 20.704 44.5755 20.5494 44.5205 20.4397C44.493 20.3848 44.4715 20.3411 44.456 20.3094C44.4483 20.2935 44.442 20.2806 44.4373 20.2708L44.4314 20.2584L44.4292 20.254L44.4284 20.2522C44.4284 20.2522 44.4277 20.2507 46.3968 19.2499L44.4277 20.2507C43.8722 19.0818 44.3381 17.6686 45.4684 17.0941C46.5978 16.5201 47.9631 17.0007 48.5195 18.1675L48.5209 18.1703L49.484 19.2105H49.7962C55.0868 26.4143 58.5241 28.6266 62.5084 28.6266C68.1431 28.6266 71.9691 24.9963 71.9691 19.2105C71.9691 13.4248 68.1431 9.79449 62.5084 9.79449C59.6835 9.79449 56.736 11.4931 53 16C52.5227 16.5758 50.7524 15.6795 49.7962 14.8318C48.84 13.9842 48.9765 12.9888 49.7962 12Z" fill="#FFC259"/>
</g>
<defs>
<filter id="filter0_d_340_16490" x="23" y="4" width="58.2598" height="38.4209" filterUnits="userSpaceOnUse" color-interpolation-filters="sRGB">
<feFlood flood-opacity="0" result="BackgroundImageFix"/>
<feColorMatrix in="SourceAlpha" type="matrix" values="0 0 0 0 0 0 0 0 0 0 0 0 0 0 0 0 0 0 127 0" result="hardAlpha"/>
<feOffset dy="4"/>
<feGaussianBlur stdDeviation="2"/>
<feComposite in2="hardAlpha" operator="out"/>
<feColorMatrix type="matrix" values="0 0 0 0 0.629167 0 0 0 0 0.554266 0 0 0 0 0.432552 0 0 0 0.35 0"/>
<feBlend mode="normal" in2="BackgroundImageFix" result="effect1_dropShadow_340_16490"/>
<feBlend mode="normal" in="SourceGraphic" in2="effect1_dropShadow_340_16490" result="shape"/>
</filter>
</defs>
</svg>
