<svg width="385" height="184" viewBox="0 0 385 184" fill="none" xmlns="http://www.w3.org/2000/svg">
<path d="M78.3749 44.3364L61.9355 86.132H99.9105C104.989 86.132 110 87.8705 110 91.5C110 94.0709 108.79 95.6011 107 97C105.21 98.4367 100.568 99.6859 97.3898 99.6859H56.6201L55.9625 101.274C53.4052 107.172 51.396 111.312 49.9347 113.693C48.4734 116.075 46.5737 118.381 44.2357 120.612C38.1348 126.397 31.1207 129.289 23.1932 129.289C16.7636 129.289 11.4664 127.304 7.30178 123.334C3.10059 119.364 1 114.317 1 108.192C1 104.374 1.89504 100.801 3.68511 97.4742C5.47518 94.1471 7.90456 91.5574 10.9733 89.7048C14.9552 87.323 20.362 86.132 27.1935 86.132H46.5372L62.9218 44.3364H56.3461H44.6134C33.236 43.9966 27.5473 45.9964 27.5473 39.997C27.5473 33.9975 28.9805 33.7507 33.6597 31.9977C36.9031 30.7825 55.6885 30.7825 58.8668 30.7825H68.2373L70.758 24.3742C75.5437 12.1247 82.8501 6 92.6772 6C97.6821 6 101.847 7.64461 105.171 10.9338C108.496 14.1852 110.158 18.2684 110.158 23.1833C110.158 29.4593 107.747 34.5632 102.924 38.4952C98.1022 42.3893 91.8369 44.3364 84.1287 44.3364H78.3749ZM83.6903 30.7825H86.211C88.9509 30.7825 91.289 30.0831 93.2252 28.6842C95.1979 27.2476 96.1843 25.5084 96.1843 23.4669C96.1843 20.4423 94.8143 18.93 92.0744 18.93C89.5902 18.93 87.307 21.5765 85.2246 26.8695L83.6903 30.7825ZM41.167 99.6859H26.7551C19.5948 99.6859 16.0147 102.313 16.0147 107.569C16.0147 109.724 16.8001 111.519 18.371 112.956C19.9419 114.431 21.9146 115.168 24.2892 115.168C27.5405 115.168 30.664 113.769 33.6597 110.971C36.6918 108.211 39.1943 104.45 41.167 99.6859Z" fill="#89795F"/>
<path d="M344.89 118.142L338.943 136.786C334.038 148.624 330.242 156.783 327.552 161.261C324.903 165.739 321.541 169.556 317.467 172.71C311.535 177.305 304.653 179.602 296.823 179.602C288.557 179.602 281.853 177.032 276.712 171.892C271.571 166.752 269 160.073 269 151.857C269 140.875 273.074 131.276 281.221 123.059C285.611 118.62 291.108 115.057 297.713 112.37C304.317 109.644 310.863 108.281 317.349 108.281C320.473 108.281 322.985 108.982 324.883 110.384C326.781 111.747 327.73 113.558 327.73 115.816C327.73 118.192 326.702 120.1 324.646 121.541C323.459 122.397 321.185 122.981 317.823 123.293C309.993 123.994 303.645 125.766 298.78 128.609C294.746 130.984 291.563 134.099 289.229 137.955C286.896 141.771 285.729 145.801 285.729 150.046C285.729 154.368 286.856 157.795 289.111 160.326C291.405 162.897 294.47 164.182 298.306 164.182C303.131 164.182 305.269 163.209 309.84 160.326C314.412 157.444 320.414 147.028 324.646 136.786L344.89 85.8756H329.651H309.84C304.113 85.8756 295.516 85.8756 295.516 85.8756C295.516 85.8756 291.858 78.3231 294.297 75.0293C295.516 73.0001 297.713 73 297.713 73L361.96 73C369.554 73 375.15 74.4214 378.749 77.2641C382.387 80.0679 384.206 84.4099 384.206 90.29C384.206 97.4553 378.546 107.814 372.93 112.37C368.856 115.68 363.708 118.142 355.205 118.142H344.89ZM349.405 108.01C349.405 108.01 355.205 109.764 361.96 108.281C368.715 106.798 374.213 98.6414 374.538 90.5958C374.652 87.7754 372.605 83.78 366.225 83.78H359.469L349.405 108.01Z" fill="#89795F"/>
<g filter="url(#filter0_d_995_15289)">
<path fill-rule="evenodd" clip-rule="evenodd" d="M104.398 82.0201C104.398 59.1814 123.172 41.072 145.811 41.072C162.489 41.072 175.142 51.3036 182.948 59.9468C186.971 64.4004 190.06 68.815 192.142 72.103C193.189 73.7562 193.997 75.1485 194.554 76.1508C194.833 76.6525 195.05 77.0583 195.205 77.3522C195.282 77.4991 195.343 77.6183 195.389 77.7076C195.412 77.7523 195.431 77.7896 195.446 77.8191L195.465 77.8577L195.476 77.8789C195.476 77.8789 195.479 77.8845 187.559 81.9074L195.479 77.8845C197.741 82.4244 199.051 86.4849 194.554 88.769C190.063 91.05 192.142 93.3189 186.225 92.2571L181.111 89.6979C183.638 89.6979 181.314 90.0642 181.111 89.6979C181.111 89.6979 177.622 87.5921 176.785 86.2691C175.354 84.6388 173.006 82.215 170.882 76.9016C165.768 64.1053 154.839 59.4757 145.811 59.4757C132.777 59.4757 122.627 69.8056 122.627 82.0201C122.627 94.2346 132.777 104.565 145.811 104.565C152.914 104.565 163.528 101.038 169.479 95.8228C173.281 92.4917 173.485 93.8252 176.785 97.6632C180.084 101.501 182.461 106.755 178.66 110.086C170.407 117.318 158.482 122.968 145.811 122.968C123.172 122.968 104.398 104.859 104.398 82.0201Z" fill="#FFBD71"/>
<path fill-rule="evenodd" clip-rule="evenodd" d="M192.541 46.4385C208.853 26.7428 223.713 15.4795 241.693 15.4795C273.164 15.4795 298.73 41.8147 298.73 74.3423C298.73 106.87 273.164 133.205 241.693 133.205C218.72 133.205 201.006 118.396 189.719 105.281C183.951 98.5794 181.548 94.6682 178.548 89.6979C177.043 87.2033 173.846 82.3606 173.055 80.8684C172.66 80.1218 172.354 79.5237 172.142 79.0991C172.036 78.8868 171.952 78.7176 171.893 78.5947C171.863 78.5333 171.838 78.4834 171.82 78.4454L171.797 78.3975L171.789 78.3803L171.786 78.3734C171.786 78.3734 171.783 78.3678 179.397 74.4947L171.783 78.3677C169.635 73.8443 171.437 68.3752 175.807 66.1521C180.174 63.9307 185.453 65.7906 187.604 70.3061L187.61 70.317L191.334 74.3423H192.541C212.997 102.22 226.288 110.781 241.693 110.781C263.48 110.781 278.274 96.7325 278.274 74.3423C278.274 51.9522 263.48 37.9034 241.693 37.9034C230.771 37.9034 219.374 44.4769 204.928 61.918C203.083 64.1464 196.238 60.6776 192.541 57.3974C188.844 54.1171 189.371 50.2651 192.541 46.4385Z" fill="#FFBD71"/>
</g>
<defs>
<filter id="filter0_d_995_15289" x="100.398" y="15.4795" width="202.332" height="125.726" filterUnits="userSpaceOnUse" color-interpolation-filters="sRGB">
<feFlood flood-opacity="0" result="BackgroundImageFix"/>
<feColorMatrix in="SourceAlpha" type="matrix" values="0 0 0 0 0 0 0 0 0 0 0 0 0 0 0 0 0 0 127 0" result="hardAlpha"/>
<feOffset dy="4"/>
<feGaussianBlur stdDeviation="2"/>
<feComposite in2="hardAlpha" operator="out"/>
<feColorMatrix type="matrix" values="0 0 0 0 1 0 0 0 0 0.85098 0 0 0 0 0.658824 0 0 0 0.25 0"/>
<feBlend mode="normal" in2="BackgroundImageFix" result="effect1_dropShadow_995_15289"/>
<feBlend mode="normal" in="SourceGraphic" in2="effect1_dropShadow_995_15289" result="shape"/>
</filter>
</defs>
</svg>
