<svg width="59" height="39" viewBox="0 0 59 39" fill="none" xmlns="http://www.w3.org/2000/svg">
<g filter="url(#filter0_d_425_15747)">
<path fill-rule="evenodd" clip-rule="evenodd" d="M4 17.1945C4 11.2929 8.85523 6.61328 14.7103 6.61328C19.0237 6.61328 22.2962 9.25718 24.3151 11.4906C25.3554 12.6415 26.1544 13.7822 26.6929 14.6319C26.9637 15.0591 27.1725 15.4189 27.3166 15.6779C27.3888 15.8075 27.445 15.9124 27.485 15.9883C27.5049 16.0263 27.5208 16.0571 27.5327 16.0802C27.5386 16.0917 27.5434 16.1013 27.5473 16.109L27.5523 16.1189L27.5551 16.1244C27.5551 16.1244 27.5558 16.1258 25.5075 17.1654L27.5558 16.1259C28.1409 17.299 28.4796 18.3483 27.3166 18.9385C26.1552 19.5279 26.6929 20.1142 25.1625 19.8398L23.8398 19.1785C23.8925 19.2732 24.4936 19.1785 23.8398 19.1785C23.8398 19.1785 22.9377 18.6344 22.721 18.2925C22.3509 17.8712 21.7437 17.2449 21.1945 15.8719C19.8719 12.5652 17.0453 11.3689 14.7103 11.3689C11.3394 11.3689 8.71431 14.0382 8.71431 17.1945C8.71431 20.3508 11.3394 23.0201 14.7103 23.0201C16.5474 23.0201 19.2925 22.1088 20.8316 20.7612C21.8148 19.9004 21.8677 20.245 22.721 21.2368C23.5743 22.2286 24.1892 23.586 23.206 24.4468C21.0715 26.3156 17.9875 27.7758 14.7103 27.7758C8.85523 27.7758 4 23.0962 4 17.1945Z" fill="white"/>
<path fill-rule="evenodd" clip-rule="evenodd" d="M26.7962 8C31.0151 2.91051 34.8583 0 39.5084 0C47.6477 0 54.2597 6.80519 54.2597 15.2105C54.2597 23.6159 47.6477 30.4211 39.5084 30.4211C33.5668 30.4211 28.9856 26.5942 26.0663 23.2053C24.5746 21.4735 23.9531 20.4628 23.1773 19.1785C22.788 18.5339 21.9613 17.2825 21.7568 16.8969C21.6544 16.704 21.5755 16.5494 21.5205 16.4397C21.493 16.3848 21.4715 16.3411 21.456 16.3094C21.4483 16.2935 21.442 16.2806 21.4373 16.2708L21.4314 16.2584L21.4292 16.254L21.4284 16.2522C21.4284 16.2522 21.4277 16.2507 23.3968 15.2499L21.4277 16.2507C20.8722 15.0818 21.3381 13.6686 22.4684 13.0941C23.5978 12.5201 24.9631 13.0007 25.5195 14.1675L25.5209 14.1703L26.484 15.2105H26.7962C32.0868 22.4143 35.5241 24.6266 39.5084 24.6266C45.1431 24.6266 48.9691 20.9963 48.9691 15.2105C48.9691 9.42477 45.1431 5.79449 39.5084 5.79449C36.6835 5.79449 33.736 7.4931 30 12C29.5227 12.5758 27.7524 11.6795 26.7962 10.8318C25.84 9.98419 25.9765 8.98882 26.7962 8Z" fill="white"/>
</g>
<defs>
<filter id="filter0_d_425_15747" x="0" y="0" width="58.2598" height="38.421" filterUnits="userSpaceOnUse" color-interpolation-filters="sRGB">
<feFlood flood-opacity="0" result="BackgroundImageFix"/>
<feColorMatrix in="SourceAlpha" type="matrix" values="0 0 0 0 0 0 0 0 0 0 0 0 0 0 0 0 0 0 127 0" result="hardAlpha"/>
<feOffset dy="4"/>
<feGaussianBlur stdDeviation="2"/>
<feComposite in2="hardAlpha" operator="out"/>
<feColorMatrix type="matrix" values="0 0 0 0 0.629167 0 0 0 0 0.554266 0 0 0 0 0.432552 0 0 0 0.35 0"/>
<feBlend mode="normal" in2="BackgroundImageFix" result="effect1_dropShadow_425_15747"/>
<feBlend mode="normal" in="SourceGraphic" in2="effect1_dropShadow_425_15747" result="shape"/>
</filter>
</defs>
</svg>
